#Comment line ignore any data following # character 
#Hierarchical Translation and Rotation (.htr) file 
[Header]	
#Header keywords are followed by a single value 
FileType HTR		#Single word string
DataType HTRS		#Translation followed by rotation and scale data
FileVersion 1		#integer
NumSegments 64		#integer
NumFrames 3		#integer
DataFrameRate 30		#integer, data frame rate in this file
EulerRotationOrder ZYX
CalibrationUnits mm
RotationUnits Degrees
GlobalAxisofGravity Y
BoneLengthAxis Y
ScaleFactor 1.00
[SegmentNames&Hierarchy]
#CHILD	PARENT
Pinger_Root GLOBAL
Pelvis Pinger_Root
L_Hip Pelvis
R_Hip Pelvis
Rear_Leg01 Pelvis
Spine1 Pelvis
L_Leg01 L_Hip
L_Leg02 L_Leg01
L_Leg03 L_Leg02
L_Foot L_Leg03
L_Toe1_01 L_Foot
L_Toe2_01 L_Foot
L_Toe3_01 L_Foot
planeAlignerLeft L_Foot
L_Toe1_02 L_Toe1_01
L_Toe1_03 L_Toe1_02
L_Toe2_02 L_Toe2_01
L_Toe2_03 L_Toe2_02
L_Toe3_02 L_Toe3_01
L_Toe3_03 L_Toe3_02
planeLockWeightLeft planeAlignerLeft
R_Leg01 R_Hip
R_Leg02 R_Leg01
R_Leg03 R_Leg02
R_Foot R_Leg03
planeAlignerRight R_Foot
R_Toe1_01 R_Foot
R_Toe2_01 R_Foot
R_Toe3_01 R_Foot
planeLockWeightRight planeAlignerRight
R_Toe1_02 R_Toe1_01
R_Toe1_03 R_Toe1_02
R_Toe2_02 R_Toe2_01
R_Toe2_03 R_Toe2_02
R_Toe3_02 R_Toe3_01
R_Toe3_03 R_Toe3_02
Rear_Leg02 Rear_Leg01
Rear_Leg03 Rear_Leg02
Rear_Leg04 Rear_Leg03
Rear_Foot Rear_Leg04
planeAlignerCenter Rear_Foot
Rear_Toe1_01 Rear_Foot
Rear_Toe2_01 Rear_Foot
Rear_Toe3_01 Rear_Foot
planeLockWeightCenter planeAlignerCenter
Rear_Toe1_02 Rear_Toe1_01
Rear_Toe1_03 Rear_Toe1_02
Rear_Toe2_02 Rear_Toe2_01
Rear_Toe2_03 Rear_Toe2_02
Rear_Toe3_02 Rear_Toe3_01
Rear_Toe3_03 Rear_Toe3_02
Back_Bone Spine1
Head Spine1
Motor_Bone Back_Bone
Ping_Mechanism Back_Bone
BN_LookIK Head
bottomMouth Head
L_Mouth01 Head
L_mouthFront Head
mouthGun Head
R_Mouth01 Head
R_mouthFront Head
TopMouth Head
weapon_bone Head
[BasePosition]
#SegmentName Tx, Ty, Tz, Rx, Ry, Rz, BoneLength
Pinger_Root 0.000000 0.000000 0.000000 -90.000000 0.000000 0.000000 10.000000 
Pelvis 0.000000 0.000000 0.000000 0.000000 0.000000 0.000000 10.000000 
L_Hip 0.000000 0.000000 0.000000 0.000000 0.000000 0.000000 10.000000 
R_Hip 0.000000 0.000000 0.000000 0.000000 0.000000 0.000000 10.000000 
Rear_Leg01 0.000000 0.000000 0.000000 0.000000 0.000000 0.000000 10.000000 
Spine1 0.000000 0.000000 0.000000 0.000000 0.000000 0.000000 10.000000 
L_Leg01 0.000000 0.000000 0.000000 0.000000 0.000000 0.000000 10.000000 
L_Leg02 0.000000 0.000000 0.000000 0.000000 0.000000 0.000000 10.000000 
L_Leg03 0.000000 0.000000 0.000000 0.000000 0.000000 0.000000 10.000000 
L_Foot 0.000000 0.000000 0.000000 0.000000 0.000000 0.000000 10.000000 
L_Toe1_01 0.000000 0.000000 0.000000 0.000000 0.000000 0.000000 10.000000 
L_Toe2_01 0.000000 0.000000 0.000000 0.000000 0.000000 0.000000 10.000000 
L_Toe3_01 0.000000 0.000000 0.000000 0.000000 0.000000 0.000000 10.000000 
planeAlignerLeft 0.000000 0.000000 0.000000 0.000000 0.000000 0.000000 10.000000 
L_Toe1_02 0.000000 0.000000 0.000000 0.000000 0.000000 0.000000 10.000000 
L_Toe1_03 0.000000 0.000000 0.000000 0.000000 0.000000 0.000000 10.000000 
L_Toe2_02 0.000000 0.000000 0.000000 0.000000 0.000000 0.000000 10.000000 
L_Toe2_03 0.000000 0.000000 0.000000 0.000000 0.000000 0.000000 10.000000 
L_Toe3_02 0.000000 0.000000 0.000000 0.000000 0.000000 0.000000 10.000000 
L_Toe3_03 0.000000 0.000000 0.000000 0.000000 0.000000 0.000000 10.000000 
planeLockWeightLeft 0.000000 0.000000 0.000000 0.000000 0.000000 0.000000 10.000000 
R_Leg01 0.000000 0.000000 0.000000 0.000000 0.000000 0.000000 10.000000 
R_Leg02 0.000000 0.000000 0.000000 0.000000 0.000000 0.000000 10.000000 
R_Leg03 0.000000 0.000000 0.000000 0.000000 0.000000 0.000000 10.000000 
R_Foot 0.000000 0.000000 0.000000 0.000000 0.000000 0.000000 10.000000 
planeAlignerRight 0.000000 0.000000 0.000000 0.000000 0.000000 0.000000 10.000000 
R_Toe1_01 0.000000 0.000000 0.000000 0.000000 0.000000 0.000000 10.000000 
R_Toe2_01 0.000000 0.000000 0.000000 0.000000 0.000000 0.000000 10.000000 
R_Toe3_01 0.000000 0.000000 0.000000 0.000000 0.000000 0.000000 10.000000 
planeLockWeightRight 0.000000 0.000000 0.000000 0.000000 0.000000 0.000000 10.000000 
R_Toe1_02 0.000000 0.000000 0.000000 0.000000 0.000000 0.000000 10.000000 
R_Toe1_03 0.000000 0.000000 0.000000 0.000000 0.000000 0.000000 10.000000 
R_Toe2_02 0.000000 0.000000 0.000000 0.000000 0.000000 0.000000 10.000000 
R_Toe2_03 0.000000 0.000000 0.000000 0.000000 0.000000 0.000000 10.000000 
R_Toe3_02 0.000000 0.000000 0.000000 0.000000 0.000000 0.000000 10.000000 
R_Toe3_03 0.000000 0.000000 0.000000 0.000000 0.000000 0.000000 10.000000 
Rear_Leg02 0.000000 0.000000 0.000000 0.000000 0.000000 0.000000 10.000000 
Rear_Leg03 0.000000 0.000000 0.000000 0.000000 0.000000 0.000000 10.000000 
Rear_Leg04 0.000000 0.000000 0.000000 0.000000 0.000000 0.000000 10.000000 
Rear_Foot 0.000000 0.000000 0.000000 0.000000 0.000000 0.000000 10.000000 
planeAlignerCenter 0.000000 0.000000 0.000000 0.000000 0.000000 0.000000 10.000000 
Rear_Toe1_01 0.000000 0.000000 0.000000 0.000000 0.000000 0.000000 10.000000 
Rear_Toe2_01 0.000000 0.000000 0.000000 0.000000 0.000000 0.000000 10.000000 
Rear_Toe3_01 0.000000 0.000000 0.000000 0.000000 0.000000 0.000000 10.000000 
planeLockWeightCenter 0.000000 0.000000 0.000000 0.000000 0.000000 0.000000 10.000000 
Rear_Toe1_02 0.000000 0.000000 0.000000 0.000000 0.000000 0.000000 10.000000 
Rear_Toe1_03 0.000000 0.000000 0.000000 0.000000 0.000000 0.000000 10.000000 
Rear_Toe2_02 0.000000 0.000000 0.000000 0.000000 0.000000 0.000000 10.000000 
Rear_Toe2_03 0.000000 0.000000 0.000000 0.000000 0.000000 0.000000 10.000000 
Rear_Toe3_02 0.000000 0.000000 0.000000 0.000000 0.000000 0.000000 10.000000 
Rear_Toe3_03 0.000000 0.000000 0.000000 0.000000 0.000000 0.000000 10.000000 
Back_Bone 0.000000 0.000000 0.000000 0.000000 0.000000 0.000000 10.000000 
Head 0.000000 0.000000 0.000000 0.000000 0.000000 0.000000 10.000000 
Motor_Bone 0.000000 0.000000 0.000000 0.000000 0.000000 0.000000 10.000000 
Ping_Mechanism 0.000000 0.000000 0.000000 0.000000 0.000000 0.000000 10.000000 
BN_LookIK 0.000000 0.000000 0.000000 0.000000 0.000000 0.000000 10.000000 
bottomMouth 0.000000 0.000000 0.000000 0.000000 0.000000 0.000000 10.000000 
L_Mouth01 0.000000 0.000000 0.000000 0.000000 0.000000 0.000000 10.000000 
L_mouthFront 0.000000 0.000000 0.000000 0.000000 0.000000 0.000000 10.000000 
mouthGun 0.000000 0.000000 0.000000 0.000000 0.000000 0.000000 10.000000 
R_Mouth01 0.000000 0.000000 0.000000 0.000000 0.000000 0.000000 10.000000 
R_mouthFront 0.000000 0.000000 0.000000 0.000000 0.000000 0.000000 10.000000 
TopMouth 0.000000 0.000000 0.000000 0.000000 0.000000 0.000000 10.000000 
weapon_bone 0.000000 0.000000 0.000000 0.000000 0.000000 0.000000 10.000000 
#Beginning of Data. Separated by tabs
#Fr	Tx	Ty	Tz	Rx	Ry	Rz	SF
[Pinger_Root]
1 0.000000 0.000000 0.000000 -0.000075 -0.000000 -0.000020 0.000000
2 0.000000 0.000000 0.000000 -0.000075 -0.000000 -0.000020 0.000000
3 0.000000 0.000000 0.000000 -0.000075 -0.000000 -0.000020 0.000000
[Pelvis]
1 -433.166290 1135.739624 2985.787842 -74.745056 -78.747437 62.162903 3223.734863
2 -433.166290 1135.739624 2985.787842 -74.745056 -78.747437 62.162903 3223.734863
3 -433.166290 1135.739624 2985.787842 -74.745056 -78.747437 62.162903 3223.734863
[L_Hip]
1 5.766392 125.831482 872.656799 -170.557617 -57.236065 91.362663 881.701050
2 5.766392 125.831482 872.656799 -170.557129 -57.236652 91.361824 881.701050
3 5.766392 125.831482 872.656799 -170.556641 -57.237225 91.360962 881.701050
[R_Hip]
1 5.765438 125.836372 -872.654907 -20.252176 57.224258 56.276077 881.699829
2 5.765438 125.836372 -872.654907 -20.252743 57.224773 56.275799 881.699829
3 5.765438 125.836372 -872.654907 -20.253298 57.225300 56.275532 881.699829
[Rear_Leg01]
1 -192.298416 -925.602966 -0.001907 -173.603302 18.242077 -111.241615 945.367432
2 -192.298416 -925.602966 -0.001907 -173.603302 18.242077 -111.241615 945.367432
3 -192.298416 -925.602966 -0.001907 -173.603302 18.242077 -111.241615 945.367432
[Spine1]
1 290.604584 5.007505 0.000477 10.139380 -13.748645 15.902486 290.647736
2 290.604584 5.007505 0.000477 10.139129 -13.748977 15.902871 290.647736
3 290.604584 5.007505 0.000477 10.138878 -13.749308 15.903257 290.647736
[L_Leg01]
1 761.932007 -0.002384 -0.069261 -2.209024 16.960550 -96.637238 761.932068
2 761.932007 -0.002384 -0.069261 -2.209024 16.960550 -96.637238 761.932068
3 761.932007 -0.002384 -0.069261 -2.209024 16.960550 -96.637238 761.932068
[L_Leg02]
1 1441.140503 -0.000954 -0.000715 22.988432 27.612614 -99.747955 1441.140503
2 1441.140503 -0.000954 -0.000715 22.988432 27.612614 -99.747955 1441.140503
3 1441.140503 -0.000954 -0.000715 22.988432 27.612614 -99.747955 1441.140503
[L_Leg03]
1 1686.963989 -0.000715 -0.000954 -0.195298 0.149535 163.251740 1686.963989
2 1686.963989 -0.000715 -0.000954 -0.195298 0.149535 163.251740 1686.963989
3 1686.963989 -0.000715 -0.000954 -0.195298 0.149535 163.251740 1686.963989
[L_Foot]
1 3041.570068 -30.715107 11.297464 7.624718 -1.347613 60.355808 3041.746094
2 3041.570068 -30.715107 11.297464 7.624718 -1.347613 60.355808 3041.746094
3 3041.570068 -30.715107 11.297464 7.624718 -1.347613 60.355808 3041.746094
[L_Toe1_01]
1 -188.216690 -224.732346 -21.137953 95.284729 -10.214472 171.441330 293.899567
2 -188.216690 -224.732346 -21.137953 95.284683 -10.214748 171.442703 293.899567
3 -188.216690 -224.732346 -21.137953 95.284668 -10.215025 171.444092 293.899567
[L_Toe2_01]
1 200.746536 -219.926590 148.838394 -94.265869 -34.145832 -36.946926 332.896027
2 200.746536 -219.926590 148.838394 -94.265129 -34.145905 -36.948685 332.896027
3 200.746536 -219.926590 148.838394 -94.264381 -34.145973 -36.950447 332.896027
[L_Toe3_01]
1 188.832520 -219.859131 -191.078659 -95.121498 15.022013 -45.004925 347.140900
2 188.832520 -219.859131 -191.078659 -95.121498 15.022013 -45.004925 347.140900
3 188.832520 -219.859131 -191.078659 -95.121506 15.022015 -45.004932 347.140900
[planeAlignerLeft]
1 0.812531 -811.448792 -0.314951 0.000000 -90.000000 -90.001900 811.449280
2 0.812531 -811.448792 -0.314951 0.000000 -90.000000 -90.001900 811.449280
3 0.812531 -811.448792 -0.314951 0.000000 -90.000000 -90.001900 811.449280
[L_Toe1_02]
1 413.761139 0.000477 0.000000 0.000203 -25.410625 -0.000182 413.761139
2 413.761139 0.000477 0.000000 0.000203 -25.410625 -0.000182 413.761139
3 413.761139 0.000477 0.000000 0.000203 -25.410625 -0.000182 413.761139
[L_Toe1_03]
1 464.317322 0.000358 -0.000089 0.005744 66.419464 0.005744 464.317322
2 464.317322 0.000358 -0.000089 0.005744 66.418716 0.005744 464.317322
3 464.317322 0.000358 -0.000089 0.005743 66.417976 0.005743 464.317322
[L_Toe2_02]
1 342.235809 -0.000477 0.000238 0.001186 -73.682083 0.001186 342.235809
2 342.235809 -0.000477 0.000238 0.001186 -73.680664 0.001186 342.235809
3 342.235809 -0.000477 0.000238 0.001186 -73.679298 0.001186 342.235809
[L_Toe2_03]
1 420.210846 -0.000715 0.000000 -0.059685 88.862717 -0.056188 420.210846
2 420.210846 -0.000715 0.000000 -0.059633 88.861855 -0.056137 420.210846
3 420.210846 -0.000715 0.000000 -0.059583 88.860992 -0.056086 420.210846
[L_Toe3_02]
1 329.270111 0.000954 0.000000 0.004676 -84.299095 0.004676 329.270111
2 329.270111 0.000954 0.000000 0.004676 -84.297241 0.004676 329.270111
3 329.270111 0.000954 0.000000 0.004676 -84.295288 0.004676 329.270111
[L_Toe3_03]
1 439.137451 -0.001907 0.000954 179.992401 55.360588 179.999725 439.137451
2 439.137451 -0.001907 0.000954 179.992401 55.361866 179.999725 439.137451
3 439.137451 -0.001907 0.000954 179.992401 55.363148 179.999725 439.137451
[planeLockWeightLeft]
1 -0.000954 0.000238 -0.000305 -0.011826 -0.004376 0.005620 0.001029
2 -0.000954 0.000238 -0.000305 -0.011826 -0.004376 0.005620 0.001029
3 -0.000954 0.000238 -0.000305 -0.011826 -0.004376 0.005620 0.001029
[R_Leg01]
1 761.455627 -0.001907 -0.000358 73.460350 -6.254861 106.553719 761.455688
2 761.455627 -0.001907 -0.000358 73.439552 -6.247805 106.552536 761.455688
3 761.455627 -0.001907 -0.000358 73.418747 -6.240740 106.551331 761.455688
[R_Leg02]
1 1441.140625 0.000000 -0.000238 20.170263 31.315775 -150.546982 1441.140625
2 1441.140625 0.000000 -0.000238 20.170263 31.315775 -150.546982 1441.140625
3 1441.140625 0.000000 -0.000238 20.170263 31.315775 -150.546982 1441.140625
[R_Leg03]
1 1686.963989 0.000954 0.001431 0.209315 -0.161957 166.977676 1686.963989
2 1686.963989 0.000954 0.001431 0.209315 -0.161957 166.977676 1686.963989
3 1686.963989 0.000954 0.001431 0.209315 -0.161957 166.977676 1686.963989
[R_Foot]
1 3041.560059 -30.531288 -11.204481 41.486427 -44.855629 37.139565 3041.734131
2 3041.560059 -30.531288 -11.204481 41.505230 -44.871754 37.119457 3041.734131
3 3041.560059 -30.531288 -11.204481 41.524021 -44.887852 37.099312 3041.734131
[planeAlignerRight]
1 -0.635147 -812.270569 -0.364304 0.000000 -89.960434 -90.005180 812.270874
2 -0.635147 -812.270569 -0.364304 0.000000 -89.960434 -90.005180 812.270874
3 -0.635147 -812.270569 -0.364304 0.000000 -89.960434 -90.005180 812.270874
[R_Toe1_01]
1 -188.383347 -224.864899 21.052242 90.575348 8.462499 175.364456 294.101532
2 -188.383347 -224.864899 21.052242 90.575348 8.462499 175.364456 294.101532
3 -188.383347 -224.864899 21.052242 90.575348 8.462499 175.364456 294.101532
[R_Toe2_01]
1 200.637817 -220.002121 -148.787384 -82.258331 10.457543 -29.565977 332.857574
2 200.637817 -220.002121 -148.787384 -82.258385 10.457556 -29.565950 332.857574
3 200.637817 -220.002121 -148.787384 -82.258438 10.457574 -29.565926 332.857574
[R_Toe3_01]
1 188.606735 -220.092957 191.126343 -69.666412 -41.489456 -42.967361 347.192566
2 188.606735 -220.092957 191.126343 -69.666412 -41.489491 -42.967342 347.192566
3 188.606735 -220.092957 191.126343 -69.666420 -41.489532 -42.967331 347.192566
[planeLockWeightRight]
1 -0.000477 0.000000 0.000000 -0.011823 -0.004379 -0.000027 0.000477
2 -0.000477 0.000000 0.000000 -0.011823 -0.004379 -0.000027 0.000477
3 -0.000477 0.000000 0.000000 -0.011823 -0.004379 -0.000027 0.000477
[R_Toe1_02]
1 413.762085 0.000477 -0.000119 0.001408 -22.885490 0.001408 413.762085
2 413.762085 0.000477 -0.000119 0.001408 -22.884708 0.001408 413.762085
3 413.762085 0.000477 -0.000119 0.001408 -22.883930 0.001408 413.762085
[R_Toe1_03]
1 464.317810 0.000000 0.001088 0.012355 79.098717 0.012355 464.317810
2 464.317810 0.000000 0.001088 0.012355 79.098656 0.012355 464.317810
3 464.317810 0.000000 0.001088 0.012355 79.098602 0.012355 464.317810
[R_Toe2_02]
1 342.234741 -0.000954 0.000238 0.001192 -69.583298 0.001192 342.234741
2 342.234741 -0.000954 0.000238 0.001192 -69.583298 0.001192 342.234741
3 342.234741 -0.000954 0.000238 0.001192 -69.583298 0.001192 342.234741
[R_Toe2_03]
1 420.210846 0.000715 -0.000268 0.011856 78.637688 0.011856 420.210846
2 420.210846 0.000715 -0.000268 0.011856 78.637741 0.011856 420.210846
3 420.210846 0.000715 -0.000268 0.011856 78.637794 0.011856 420.210846
[R_Toe3_02]
1 329.270355 -0.000477 -0.000954 0.001179 -79.434776 0.001179 329.270355
2 329.270355 -0.000477 -0.000954 0.001179 -79.434776 0.001179 329.270355
3 329.270355 -0.000477 -0.000954 0.001179 -79.434776 0.001179 329.270355
[R_Toe3_03]
1 439.137939 0.000238 0.001431 -179.993027 82.449188 -179.989517 439.137939
2 439.137939 0.000238 0.001431 -179.993027 82.449219 -179.989517 439.137939
3 439.137939 0.000238 0.001431 -179.993027 82.449142 -179.989517 439.137939
[Rear_Leg02]
1 1162.777710 -0.029802 0.005960 -38.689457 25.614828 -112.039032 1162.777710
2 1162.777710 -0.029802 0.005960 -38.659714 25.599976 -112.025604 1162.777710
3 1162.777710 -0.029802 0.005960 -38.629974 25.585117 -112.012199 1162.777710
[Rear_Leg03]
1 607.192505 -0.013351 -0.073195 0.010080 -0.005878 76.846329 607.192505
2 607.192505 -0.013351 -0.073195 0.010080 -0.005878 76.846329 607.192505
3 607.192505 -0.013351 -0.073195 0.010080 -0.005878 76.846329 607.192505
[Rear_Leg04]
1 995.874512 -0.020504 -0.011921 -0.042982 -0.017811 89.140625 995.874573
2 995.874512 -0.020504 -0.011921 -0.042982 -0.017811 89.140625 995.874573
3 995.874512 -0.020504 -0.011921 -0.042982 -0.017811 89.140625 995.874573
[Rear_Foot]
1 3096.176270 -0.067472 -0.041425 56.557236 42.560112 -122.536194 3096.176270
2 3096.176270 -0.067472 -0.041425 56.550900 42.590992 -122.540550 3096.176270
3 3096.176270 -0.067472 -0.041425 56.544567 42.621872 -122.544922 3096.176270
[planeAlignerCenter]
1 0.350077 0.966311 -838.790894 0.000009 0.000003 -179.999985 838.791565
2 0.350077 0.966311 -838.790894 0.000009 0.000003 -179.999985 838.791565
3 0.350077 0.966311 -838.790894 0.000009 0.000003 -179.999985 838.791565
[Rear_Toe1_01]
1 0.653352 83.966492 -371.173737 5.379987 30.461653 103.607674 380.553192
2 0.653352 83.966492 -371.173737 5.379913 30.461033 103.607704 380.553192
3 0.653352 83.966492 -371.173737 5.379836 30.460403 103.607719 380.553192
[Rear_Toe2_01]
1 178.200760 -294.826019 -362.060547 -8.741129 22.951086 -73.397560 499.765686
2 178.200760 -294.826019 -362.060547 -8.741096 22.950489 -73.397537 499.765686
3 178.200760 -294.826019 -362.060547 -8.741064 22.949898 -73.397507 499.765686
[Rear_Toe3_01]
1 -153.359680 -308.780914 -362.060852 3.772577 19.496872 -119.572105 499.952881
2 -153.359680 -308.780914 -362.060852 3.772799 19.496302 -119.572083 499.952881
3 -153.359680 -308.780914 -362.060852 3.773019 19.495729 -119.572067 499.952881
[planeLockWeightCenter]
1 -0.000062 0.000238 0.000000 -0.011814 -0.004373 -0.000015 0.000246
2 -0.000062 0.000238 0.000000 -0.011814 -0.004373 -0.000015 0.000246
3 -0.000062 0.000238 0.000000 -0.011814 -0.004373 -0.000015 0.000246
[Rear_Toe1_02]
1 379.707825 0.194073 0.000477 -0.000337 -32.964039 0.006987 379.707855
2 379.707825 0.194073 0.000477 -0.000337 -32.964855 0.006987 379.707855
3 379.707825 0.194073 0.000477 -0.000337 -32.965683 0.006987 379.707855
[Rear_Toe1_03]
1 500.129700 0.165701 0.000119 -0.004070 60.568069 -0.000455 500.129761
2 500.129700 0.165701 0.000119 -0.004070 60.568737 -0.000455 500.129761
3 500.129700 0.165701 0.000119 -0.004070 60.569393 -0.000455 500.129761
[Rear_Toe2_02]
1 340.494507 0.000238 -0.000954 0.001179 -79.094398 0.001179 340.494507
2 340.494507 0.000238 -0.000954 0.001179 -79.095245 0.001179 340.494507
3 340.494507 0.000238 -0.000954 0.001179 -79.096092 0.001179 340.494507
[Rear_Toe2_03]
1 433.103577 0.000000 0.000238 0.031673 85.752869 0.031673 433.103546
2 433.103577 0.000000 0.000238 0.031679 85.753555 0.031679 433.103546
3 433.103577 0.000000 0.000238 0.031684 85.754395 0.031684 433.103546
[Rear_Toe3_02]
1 340.494141 -0.000358 -0.000477 -0.002471 -50.096046 -0.002471 340.494171
2 340.494141 -0.000358 -0.000477 -0.002471 -50.096878 -0.002471 340.494171
3 340.494141 -0.000358 -0.000477 -0.002471 -50.097713 -0.002471 340.494171
[Rear_Toe3_03]
1 433.103577 0.001431 -0.000238 0.000412 44.441471 -0.003381 433.103546
2 433.103577 0.001431 -0.000238 0.000412 44.442394 -0.003381 433.103546
3 433.103577 0.001431 -0.000238 0.000412 44.443306 -0.003381 433.103546
[Back_Bone]
1 1312.175781 -701.934692 0.000954 14.436758 2.868636 -96.602402 1488.125488
2 1312.175781 -701.934692 0.000954 14.436758 2.868636 -96.602402 1488.125488
3 1312.175781 -701.934692 0.000954 14.436758 2.868636 -96.602402 1488.125488
[Head]
1 1406.159424 809.709290 0.001431 4.759904 14.176730 40.831047 1622.625488
2 1406.159424 809.709290 0.001431 4.759904 14.176730 40.831047 1622.625488
3 1406.159424 809.709290 0.001431 4.759904 14.176730 40.831047 1622.625488
[Motor_Bone]
1 1158.364380 -417.834747 0.000477 0.140315 9.108788 -92.599266 1231.419434
2 1158.364380 -417.834747 0.000477 0.057372 9.109333 -92.869499 1231.419434
3 1158.364380 -417.834747 0.000477 -0.025573 9.109489 -93.139717 1231.419434
[Ping_Mechanism]
1 1204.584961 -413.809174 50.671082 0.000103 -0.000053 82.120995 1274.688354
2 1204.586426 -413.816010 50.673973 0.000103 -0.000053 82.120995 1274.692017
3 1204.587646 -413.822845 50.676865 0.000103 -0.000053 82.120995 1274.695679
[BN_LookIK]
1 193.241119 1380.371704 -0.002861 0.000000 89.965736 -31.038179 1393.832153
2 193.241119 1380.371704 -0.002861 0.000000 89.965736 -31.038179 1393.832153
3 193.241119 1380.371704 -0.002861 0.000000 89.965736 -31.038179 1393.832153
[bottomMouth]
1 -435.092926 615.759399 -0.000954 -0.000022 0.000016 73.527184 753.966492
2 -435.092926 615.759399 -0.000954 -0.000022 0.000016 73.527184 753.966492
3 -435.092926 615.759399 -0.000954 -0.000022 0.000016 73.527184 753.966492
[L_Mouth01]
1 554.440979 7.658243 838.222046 150.204178 23.759130 109.605339 1005.027161
2 554.440979 7.658243 838.222046 150.204178 23.759130 109.605339 1005.027161
3 554.440979 7.658243 838.222046 150.204178 23.759130 109.605339 1005.027161
[L_mouthFront]
1 551.629089 934.514771 339.150421 0.000081 2.804060 79.119301 1136.941284
2 551.629089 934.514771 339.150421 0.000081 2.804060 79.119301 1136.941284
3 551.629089 934.514771 339.150421 0.000081 2.804060 79.119301 1136.941284
[mouthGun]
1 55.332661 1627.420898 0.000000 0.000023 0.000009 -11.038128 1628.361328
2 55.332661 1627.420898 0.000000 0.000023 0.000009 -11.038128 1628.361328
3 55.332661 1627.420898 0.000000 0.000023 0.000009 -11.038128 1628.361328
[R_Mouth01]
1 554.442383 7.659197 -838.223938 29.795891 -23.759109 109.605331 1005.029541
2 554.442383 7.659197 -838.223938 29.795891 -23.759109 109.605331 1005.029541
3 554.442383 7.659197 -838.223938 29.795891 -23.759109 109.605331 1005.029541
[R_mouthFront]
1 551.629089 934.514282 -339.151367 0.000029 -2.803930 79.119133 1136.941162
2 551.629089 934.514282 -339.151367 0.000029 -2.803930 79.119133 1136.941162
3 551.629089 934.514282 -339.151367 0.000029 -2.803930 79.119133 1136.941162
[TopMouth]
1 461.269867 -56.106091 -0.008583 -0.000059 -0.000268 92.025169 464.669525
2 461.269867 -56.106091 -0.008583 -0.000059 -0.000268 92.025169 464.669525
3 461.269867 -56.106091 -0.008583 -0.000059 -0.000268 92.025169 464.669525
[weapon_bone]
1 -987.239868 1448.372803 0.001431 0.000000 89.965736 -31.038221 1752.833740
2 -987.239868 1448.372803 0.001431 0.000000 89.965736 -31.038221 1752.833740
3 -987.239868 1448.372803 0.001431 0.000000 89.965736 -31.038221 1752.833740
